<svg width="30" height="30" viewBox="0 0 30 30" fill="none" xmlns="http://www.w3.org/2000/svg">
<path d="M7.4375 7.23047C9.52865 5.13932 12.0495 4.09375 15 4.09375C17.9505 4.09375 20.457 5.13932 22.5195 7.23047C24.6107 9.29297 25.6562 11.7995 25.6562 14.75C25.6562 17.7005 24.6107 20.2214 22.5195 22.3125C20.457 24.375 17.9505 25.4062 15 25.4062C12.0495 25.4062 9.52865 24.375 7.4375 22.3125C5.375 20.2214 4.34375 17.7005 4.34375 14.75C4.34375 11.7995 5.375 9.29297 7.4375 7.23047ZM8.89844 20.8516C10.5885 22.513 12.6224 23.3438 15 23.3438C17.3776 23.3438 19.3971 22.513 21.0586 20.8516C22.7487 19.1615 23.5938 17.1276 23.5938 14.75C23.5938 12.3724 22.7487 10.3529 21.0586 8.69141C19.3971 7.0013 17.3776 6.15625 15 6.15625C12.6224 6.15625 10.5885 7.0013 8.89844 8.69141C7.23698 10.3529 6.40625 12.3724 6.40625 14.75C6.40625 17.1276 7.23698 19.1615 8.89844 20.8516ZM11.2617 18.918C12.2357 17.7435 13.4818 17.1562 15 17.1562C16.5182 17.1562 17.7643 17.7435 18.7383 18.918C18.9102 19.1185 18.9818 19.362 18.9531 19.6484C18.9245 19.9349 18.8099 20.1641 18.6094 20.3359C18.3802 20.5365 18.1224 20.6224 17.8359 20.5938C17.5495 20.5651 17.3203 20.4362 17.1484 20.207C16.6042 19.5768 15.888 19.2617 15 19.2617C14.112 19.2617 13.3958 19.5768 12.8516 20.207C12.6797 20.4362 12.4505 20.5651 12.1641 20.5938C11.8776 20.6224 11.6198 20.5508 11.3906 20.3789C11.1901 20.1784 11.0755 19.9349 11.0469 19.6484C11.0182 19.362 11.0898 19.1185 11.2617 18.918ZM12.9375 14.0625C12.9375 14.4349 12.7943 14.7643 12.5078 15.0508C12.25 15.3086 11.9349 15.4375 11.5625 15.4375C11.1901 15.4375 10.8607 15.3086 10.5742 15.0508C10.3164 14.7643 10.1875 14.4349 10.1875 14.0625C10.1875 13.8333 10.2591 13.6042 10.4023 13.375L9.19922 12.9883C8.94141 12.9023 8.74089 12.7448 8.59766 12.5156C8.45443 12.2578 8.42578 12 8.51172 11.7422C8.59766 11.4557 8.75521 11.2409 8.98438 11.0977C9.24219 10.9544 9.51432 10.9258 9.80078 11.0117L13.2383 12.043C13.4961 12.1289 13.6966 12.3008 13.8398 12.5586C13.9831 12.7878 14.0117 13.0456 13.9258 13.332C13.7826 13.819 13.4531 14.0625 12.9375 14.0625ZM20.9727 11.0977C21.2305 11.2409 21.4023 11.4557 21.4883 11.7422C21.5742 12 21.5456 12.2578 21.4023 12.5156C21.2591 12.7448 21.0586 12.9023 20.8008 12.9883L19.5977 13.332C19.7409 13.5898 19.8125 13.8333 19.8125 14.0625C19.8125 14.4349 19.6693 14.7643 19.3828 15.0508C19.125 15.3086 18.8099 15.4375 18.4375 15.4375C18.0651 15.4375 17.7357 15.3086 17.4492 15.0508C17.1914 14.7643 17.0625 14.4349 17.0625 14.0625C16.5469 14.0625 16.2174 13.819 16.0742 13.332C16.0169 13.1888 16.0026 13.0599 16.0312 12.9453C16.0599 12.8021 16.1029 12.6732 16.1602 12.5586C16.2174 12.444 16.2891 12.3438 16.375 12.2578C16.4896 12.1432 16.6185 12.0716 16.7617 12.043L20.1992 11.0117C20.4857 10.9258 20.7435 10.9544 20.9727 11.0977Z" fill="#828282"/>
</svg>
