<svg width="30" height="30" viewBox="0 0 30 30" fill="none" xmlns="http://www.w3.org/2000/svg">
<path d="M7.4375 7.23047C9.52865 5.13932 12.0495 4.09375 15 4.09375C17.9505 4.09375 20.457 5.13932 22.5195 7.23047C24.6107 9.29297 25.6562 11.7995 25.6562 14.75C25.6562 17.7005 24.6107 20.2214 22.5195 22.3125C20.457 24.375 17.9505 25.4062 15 25.4062C12.0495 25.4062 9.52865 24.375 7.4375 22.3125C5.375 20.2214 4.34375 17.7005 4.34375 14.75C4.34375 11.7995 5.375 9.29297 7.4375 7.23047ZM15 23.3438C17.3776 23.3438 19.3971 22.513 21.0586 20.8516C22.7487 19.1615 23.5938 17.1276 23.5938 14.75C23.5938 12.3724 22.7487 10.3529 21.0586 8.69141C19.3971 7.0013 17.3776 6.15625 15 6.15625C12.6224 6.15625 10.5885 7.0013 8.89844 8.69141C7.23698 10.3529 6.40625 12.3724 6.40625 14.75C6.40625 17.1276 7.23698 19.1615 8.89844 20.8516C10.5885 22.513 12.6224 23.3438 15 23.3438ZM19.125 12.1719L20.543 13.8906C20.7435 14.1198 20.7435 14.349 20.543 14.5781C20.3424 14.7786 20.1276 14.8073 19.8984 14.6641L16.4609 12.6016C16.2891 12.5156 16.2031 12.3724 16.2031 12.1719C16.2031 11.9714 16.2891 11.8281 16.4609 11.7422L19.8984 9.67969C20.1276 9.53646 20.3424 9.57943 20.543 9.80859C20.7435 10.0091 20.7435 10.224 20.543 10.4531L19.125 12.1719ZM10.1016 14.6641C9.84375 14.8073 9.61458 14.7786 9.41406 14.5781C9.24219 14.349 9.25651 14.1198 9.45703 13.8906L10.875 12.1719L9.45703 10.4531C9.25651 10.224 9.25651 10.0091 9.45703 9.80859C9.65755 9.57943 9.8724 9.53646 10.1016 9.67969L13.5391 11.7422C13.7109 11.8281 13.7969 11.9714 13.7969 12.1719C13.7969 12.3724 13.7109 12.5156 13.5391 12.6016L10.1016 14.6641ZM19.8984 16.125C20.099 16.125 20.2565 16.1966 20.3711 16.3398C20.4857 16.4544 20.5286 16.5977 20.5 16.7695C20.3281 18.0586 19.7409 19.1328 18.7383 19.9922C17.7643 20.8516 16.6185 21.2812 15.3008 21.2812H14.6992C13.3815 21.2812 12.2214 20.8516 11.2188 19.9922C10.2448 19.1328 9.67188 18.0586 9.5 16.7695C9.47135 16.5977 9.51432 16.4544 9.62891 16.3398C9.74349 16.1966 9.90104 16.125 10.1016 16.125H19.8984Z" fill="#828282"/>
</svg>
