<svg width="22" height="22" viewBox="0 0 22 22" fill="none" xmlns="http://www.w3.org/2000/svg">
<path d="M3.4375 3.23047C5.52865 1.13932 8.04948 0.09375 11 0.09375C13.9505 0.09375 16.457 1.13932 18.5195 3.23047C20.6107 5.29297 21.6562 7.79948 21.6562 10.75C21.6562 13.7005 20.6107 16.2214 18.5195 18.3125C16.457 20.375 13.9505 21.4062 11 21.4062C8.04948 21.4062 5.52865 20.375 3.4375 18.3125C1.375 16.2214 0.34375 13.7005 0.34375 10.75C0.34375 7.79948 1.375 5.29297 3.4375 3.23047ZM4.89844 16.8516C6.58854 18.513 8.6224 19.3438 11 19.3438C13.3776 19.3438 15.3971 18.513 17.0586 16.8516C18.7487 15.1615 19.5938 13.1276 19.5938 10.75C19.5938 8.3724 18.7487 6.35286 17.0586 4.69141C15.3971 3.0013 13.3776 2.15625 11 2.15625C8.6224 2.15625 6.58854 3.0013 4.89844 4.69141C3.23698 6.35286 2.40625 8.3724 2.40625 10.75C2.40625 13.1276 3.23698 15.1615 4.89844 16.8516ZM11.3438 12.8125C13.0625 12.8125 14.4661 13.4714 15.5547 14.7891C15.7552 15.0182 15.8411 15.276 15.8125 15.5625C15.7839 15.849 15.6549 16.0781 15.4258 16.25C15.1966 16.4219 14.9388 16.4935 14.6523 16.4648C14.3945 16.4362 14.1797 16.3216 14.0078 16.1211C13.3203 15.2904 12.4323 14.875 11.3438 14.875C11.0573 14.875 10.8138 14.7747 10.6133 14.5742C10.4128 14.3737 10.3125 14.1302 10.3125 13.8438C10.3125 13.5573 10.4128 13.3138 10.6133 13.1133C10.8138 12.9128 11.0573 12.8125 11.3438 12.8125ZM8.50781 9.67578C8.25 9.93359 7.9349 10.0625 7.5625 10.0625C7.1901 10.0625 6.86068 9.93359 6.57422 9.67578C6.31641 9.38932 6.1875 9.0599 6.1875 8.6875C6.1875 8.3151 6.31641 8 6.57422 7.74219C6.86068 7.45573 7.1901 7.3125 7.5625 7.3125C7.9349 7.3125 8.25 7.45573 8.50781 7.74219C8.79427 8 8.9375 8.3151 8.9375 8.6875C8.9375 9.0599 8.79427 9.38932 8.50781 9.67578ZM13.4492 7.74219C13.7357 7.45573 14.0651 7.3125 14.4375 7.3125C14.8099 7.3125 15.125 7.45573 15.3828 7.74219C15.6693 8 15.8125 8.3151 15.8125 8.6875C15.8125 9.0599 15.6693 9.38932 15.3828 9.67578C15.125 9.93359 14.8099 10.0625 14.4375 10.0625C14.0651 10.0625 13.7357 9.93359 13.4492 9.67578C13.1914 9.38932 13.0625 9.0599 13.0625 8.6875C13.0625 8.3151 13.1914 8 13.4492 7.74219ZM7.30469 11.5664C7.47656 11.3372 7.64844 11.3372 7.82031 11.5664C8.85156 12.9701 9.36719 13.944 9.36719 14.4883C9.36719 14.9753 9.18099 15.3906 8.80859 15.7344C8.46484 16.0781 8.04948 16.25 7.5625 16.25C7.07552 16.25 6.64583 16.0781 6.27344 15.7344C5.92969 15.3906 5.75781 14.9753 5.75781 14.4883C5.75781 13.944 6.27344 12.9701 7.30469 11.5664Z" fill="#828282"/>
</svg>
