<svg width="23" height="20" viewBox="0 0 23 20" fill="none" xmlns="http://www.w3.org/2000/svg">
<path d="M0.257812 3.77734L3.69531 0.339844C4.01042 -0.00390625 4.32552 -0.00390625 4.64062 0.339844L8.07812 3.77734C8.30729 3.97786 8.36458 4.22135 8.25 4.50781C8.13542 4.79427 7.92057 4.9375 7.60547 4.9375H5.54297V18.6875C5.54297 18.888 5.47135 19.0456 5.32812 19.1602C5.21354 19.3034 5.05599 19.375 4.85547 19.375H3.48047C3.27995 19.375 3.10807 19.3034 2.96484 19.1602C2.85026 19.0456 2.79297 18.888 2.79297 18.6875V4.9375H0.730469C0.415365 4.9375 0.200521 4.79427 0.0859375 4.50781C-0.0286458 4.22135 0.0286458 3.97786 0.257812 3.77734ZM10.3555 2.875C10.1549 2.875 9.98307 2.81771 9.83984 2.70312C9.72526 2.5599 9.66797 2.38802 9.66797 2.1875V0.8125C9.66797 0.611979 9.72526 0.454427 9.83984 0.339844C9.98307 0.196615 10.1549 0.125 10.3555 0.125H21.3555C21.556 0.125 21.7135 0.196615 21.8281 0.339844C21.9714 0.454427 22.043 0.611979 22.043 0.8125V2.1875C22.043 2.38802 21.9714 2.5599 21.8281 2.70312C21.7135 2.81771 21.556 2.875 21.3555 2.875H10.3555ZM9.66797 7.6875V6.3125C9.66797 6.11198 9.72526 5.95443 9.83984 5.83984C9.98307 5.69661 10.1549 5.625 10.3555 5.625H18.6055C18.806 5.625 18.9635 5.69661 19.0781 5.83984C19.2214 5.95443 19.293 6.11198 19.293 6.3125V7.6875C19.293 7.88802 19.2214 8.0599 19.0781 8.20312C18.9635 8.31771 18.806 8.375 18.6055 8.375H10.3555C10.1549 8.375 9.98307 8.31771 9.83984 8.20312C9.72526 8.0599 9.66797 7.88802 9.66797 7.6875ZM9.66797 18.6875V17.3125C9.66797 17.112 9.72526 16.9544 9.83984 16.8398C9.98307 16.6966 10.1549 16.625 10.3555 16.625H13.1055C13.306 16.625 13.4635 16.6966 13.5781 16.8398C13.7214 16.9544 13.793 17.112 13.793 17.3125V18.6875C13.793 18.888 13.7214 19.0456 13.5781 19.1602C13.4635 19.3034 13.306 19.375 13.1055 19.375H10.3555C10.1549 19.375 9.98307 19.3034 9.83984 19.1602C9.72526 19.0456 9.66797 18.888 9.66797 18.6875ZM9.66797 13.1875V11.8125C9.66797 11.612 9.72526 11.4544 9.83984 11.3398C9.98307 11.1966 10.1549 11.125 10.3555 11.125H15.8555C16.056 11.125 16.2135 11.1966 16.3281 11.3398C16.4714 11.4544 16.543 11.612 16.543 11.8125V13.1875C16.543 13.388 16.4714 13.5599 16.3281 13.7031C16.2135 13.8177 16.056 13.875 15.8555 13.875H10.3555C10.1549 13.875 9.98307 13.8177 9.83984 13.7031C9.72526 13.5599 9.66797 13.388 9.66797 13.1875Z" fill="#333333"/>
</svg>
