<svg width="30" height="30" viewBox="0 0 30 30" fill="none" xmlns="http://www.w3.org/2000/svg">
<path d="M7.4375 7.23047C9.52865 5.13932 12.0495 4.09375 15 4.09375C17.9505 4.09375 20.457 5.13932 22.5195 7.23047C24.6107 9.29297 25.6562 11.7995 25.6562 14.75C25.6562 17.7005 24.6107 20.2214 22.5195 22.3125C20.457 24.375 17.9505 25.4062 15 25.4062C12.0495 25.4062 9.52865 24.375 7.4375 22.3125C5.375 20.2214 4.34375 17.7005 4.34375 14.75C4.34375 11.7995 5.375 9.29297 7.4375 7.23047ZM8.89844 20.8516C10.5885 22.513 12.6224 23.3438 15 23.3438C17.3776 23.3438 19.3971 22.513 21.0586 20.8516C22.7487 19.1615 23.5938 17.1276 23.5938 14.75C23.5938 12.3724 22.7487 10.3529 21.0586 8.69141C19.3971 7.0013 17.3776 6.15625 15 6.15625C12.6224 6.15625 10.5885 7.0013 8.89844 8.69141C7.23698 10.3529 6.40625 12.3724 6.40625 14.75C6.40625 17.1276 7.23698 19.1615 8.89844 20.8516ZM12.5078 13.6758C12.25 13.9336 11.9349 14.0625 11.5625 14.0625C11.1901 14.0625 10.8607 13.9336 10.5742 13.6758C10.3164 13.3893 10.1875 13.0599 10.1875 12.6875C10.1875 12.3151 10.3164 12 10.5742 11.7422C10.8607 11.4557 11.1901 11.3125 11.5625 11.3125C11.9349 11.3125 12.25 11.4557 12.5078 11.7422C12.7943 12 12.9375 12.3151 12.9375 12.6875C12.9375 13.0599 12.7943 13.3893 12.5078 13.6758ZM19.3828 13.6758C19.125 13.9336 18.8099 14.0625 18.4375 14.0625C18.0651 14.0625 17.7357 13.9336 17.4492 13.6758C17.1914 13.3893 17.0625 13.0599 17.0625 12.6875C17.0625 12.3151 17.1914 12 17.4492 11.7422C17.7357 11.4557 18.0651 11.3125 18.4375 11.3125C18.8099 11.3125 19.125 11.4557 19.3828 11.7422C19.6693 12 19.8125 12.3151 19.8125 12.6875C19.8125 13.0599 19.6693 13.3893 19.3828 13.6758ZM18.6094 17.1992C18.7812 16.9701 19.0104 16.8411 19.2969 16.8125C19.5833 16.7839 19.8268 16.8698 20.0273 17.0703C20.2565 17.2422 20.3854 17.4714 20.4141 17.7578C20.4427 18.0443 20.3711 18.2878 20.1992 18.4883C18.8529 20.1211 17.1198 20.9375 15 20.9375C12.8802 20.9375 11.1471 20.1211 9.80078 18.4883C9.62891 18.2878 9.55729 18.0443 9.58594 17.7578C9.61458 17.4714 9.72917 17.2422 9.92969 17.0703C10.1589 16.8698 10.4167 16.7839 10.7031 16.8125C10.9896 16.8411 11.2188 16.9701 11.3906 17.1992C12.3359 18.3164 13.5391 18.875 15 18.875C16.4609 18.875 17.6641 18.3164 18.6094 17.1992Z" fill="#828282"/>
</svg>
