<svg width="30" height="30" viewBox="0 0 30 30" fill="none" xmlns="http://www.w3.org/2000/svg">
<path d="M7.4375 7.23047C9.52865 5.13932 12.0495 4.09375 15 4.09375C17.9505 4.09375 20.457 5.13932 22.5195 7.23047C24.6107 9.29297 25.6562 11.7995 25.6562 14.75C25.6562 17.7005 24.6107 20.2214 22.5195 22.3125C20.457 24.375 17.9505 25.4062 15 25.4062C12.0495 25.4062 9.52865 24.375 7.4375 22.3125C5.375 20.2214 4.34375 17.7005 4.34375 14.75C4.34375 11.7995 5.375 9.29297 7.4375 7.23047ZM8.89844 20.8516C10.5885 22.513 12.6224 23.3438 15 23.3438C17.3776 23.3438 19.3971 22.513 21.0586 20.8516C22.7487 19.1615 23.5938 17.1276 23.5938 14.75C23.5938 12.3724 22.7487 10.3529 21.0586 8.69141C19.3971 7.0013 17.3776 6.15625 15 6.15625C12.6224 6.15625 10.5885 7.0013 8.89844 8.69141C7.23698 10.3529 6.40625 12.3724 6.40625 14.75C6.40625 17.1276 7.23698 19.1615 8.89844 20.8516ZM13.0664 16.5977C13.6107 16.0534 14.2552 15.7812 15 15.7812C15.7448 15.7812 16.3893 16.0534 16.9336 16.5977C17.4779 17.1419 17.75 17.7865 17.75 18.5312C17.75 19.276 17.4779 19.9206 16.9336 20.4648C16.3893 21.0091 15.7448 21.2812 15 21.2812C14.2552 21.2812 13.6107 21.0091 13.0664 20.4648C12.5221 19.9206 12.25 19.276 12.25 18.5312C12.25 17.7865 12.5221 17.1419 13.0664 16.5977ZM12.5078 11.7422C12.7943 12 12.9375 12.3151 12.9375 12.6875C12.9375 13.0599 12.7943 13.3893 12.5078 13.6758C12.25 13.9336 11.9349 14.0625 11.5625 14.0625C11.1901 14.0625 10.8607 13.9336 10.5742 13.6758C10.3164 13.3893 10.1875 13.0599 10.1875 12.6875C10.1875 12.3151 10.3164 12 10.5742 11.7422C10.8607 11.4557 11.1901 11.3125 11.5625 11.3125C11.9349 11.3125 12.25 11.4557 12.5078 11.7422ZM17.4492 11.7422C17.7357 11.4557 18.0651 11.3125 18.4375 11.3125C18.8099 11.3125 19.125 11.4557 19.3828 11.7422C19.6693 12 19.8125 12.3151 19.8125 12.6875C19.8125 13.0599 19.6693 13.3893 19.3828 13.6758C19.125 13.9336 18.8099 14.0625 18.4375 14.0625C18.0651 14.0625 17.7357 13.9336 17.4492 13.6758C17.1914 13.3893 17.0625 13.0599 17.0625 12.6875C17.0625 12.3151 17.1914 12 17.4492 11.7422Z" fill="#828282"/>
</svg>
